<svg height="512pt" viewBox="-70 0 512 512" width="512pt" xmlns="http://www.w3.org/2000/svg"><path d="M365.45 468.25c-4.13-.656-8.02 2.16-8.677 6.293-1.988 12.379-12.195 21.516-24.597 22.234-.008.008-.02 0-.02 0-8.855-1.484-15.68-9.562-15.68-18.71v-19.438c0-6.2-5.038-11.238-11.238-11.238H55.555V318.02c0-4.18-3.39-7.575-7.57-7.575s-7.575 3.395-7.575 7.575v129.37H11.238C5.04 447.39 0 452.43 0 458.63v19.437c0 17.567 13.668 33.918 35.07 33.918 311.368 0 297.028.07 297.907-.07.007.008.02 0 .02 0 19.515-1.101 35.612-15.473 38.733-34.988a7.58 7.58 0 0 0-6.28-8.676zM33.917 496.836c-10.352 0-18.773-8.422-18.773-18.77v-15.53h286.183c.777 10.956-2.555 21.85 5.594 34.3H33.918zm0 0M369.559 74.707c-3.579-7.41-3.227-4.637-65.797-67.004A26.676 26.676 0 0 0 284.953 0H53.012C46.066 0 40.41 5.656 40.41 12.602v275.125c0 4.18 3.395 7.574 7.574 7.574s7.57-3.395 7.57-7.574V15.145c48.223.003 228.747-.008 229.704.015v50.375c0 11.242 9.148 20.387 20.39 20.387h51.438c.035.89.02 280.933.023 359.55a7.573 7.573 0 0 0 15.145 0c-.813-375.269 2.187-361.87-2.695-370.765zm-63.91-3.93a5.248 5.248 0 0 1-5.243-5.242V25.656l45.809 45.121zm0 0"/><path d="M320.57 130.895a7.574 7.574 0 0 0 7.575-7.575 7.57 7.57 0 0 0-7.575-7.57h-36.636a7.57 7.57 0 0 0-7.575 7.57 7.574 7.574 0 0 0 7.575 7.575zm0 0M92.082 130.895h161.559a7.574 7.574 0 0 0 7.574-7.575 7.57 7.57 0 0 0-7.574-7.57H92.082a7.57 7.57 0 0 0-7.574 7.57 7.574 7.574 0 0 0 7.574 7.575zm0 0M92.082 182.531H320.57a7.573 7.573 0 1 0 0-15.144H92.082a7.573 7.573 0 0 0 0 15.145zm0 0M92.082 234.172H320.57c4.184 0 7.575-3.39 7.575-7.574s-3.391-7.575-7.575-7.575H92.082c-4.184 0-7.574 3.391-7.574 7.575s3.39 7.574 7.574 7.574zm0 0M92.082 285.809H320.57c4.184 0 7.575-3.391 7.575-7.575s-3.391-7.574-7.575-7.574H92.082c-4.184 0-7.574 3.39-7.574 7.574s3.39 7.575 7.574 7.575zm0 0M266.516 410.984a7.572 7.572 0 1 0-.688 15.129c32.145 1.453 55.332-29.625 50.633-44.734-2.258-7.277-9.36-10.219-12.77-11.633a1963.276 1963.276 0 0 0-46.023-18.387c1.832-6.347 3.07-12.964 3.559-19.886.835-11.938-11.532-20.282-22.282-15.075-12.547 6.079-18.703 9.325-21.449 16.637-4.566 12.16 4.863 21.192 17.578 25.945 1.047.395 2.09.786 3.137 1.176-8.938 19.602-23.883 36.903-37.594 52.77a7.572 7.572 0 0 0 .781 10.68 7.568 7.568 0 0 0 10.68-.778c14.684-16.992 30.68-35.508 40.371-57.25 2.293.883 47.563 18.39 49.496 20.313-.082 1.68-1.86 7.16-7.605 13.242-4.442 4.695-13.961 12.449-27.824 11.851zm-23.09-65.046c-17.516-6.59-14.504-7.856 2.117-15.907a.391.391 0 0 1 .574.38c-.375 5.331-1.308 10.503-2.691 15.526zm0 0"/></svg>
