<svg xmlns="http://www.w3.org/2000/svg" viewBox="0 0 511.999 511.999"><path d="M200.61 309.633l-24.964-9.986a.514.514 0 0 1-.324-.479v-15.32a39.339 39.339 0 0 0 8.017-23.841v-24.049c0-17.396-17.749-31.548-39.564-31.548-21.816 0-39.565 14.152-39.565 31.548v24.049a39.354 39.354 0 0 0 8.016 23.842v15.32c0 .212-.127.4-.324.479l-24.964 9.985c-8.986 3.595-14.792 12.171-14.792 21.849V356.2c0 8.556 6.96 15.516 15.516 15.516h64.128a7.5 7.5 0 0 0 0-15H87.661a.516.516 0 0 1-.516-.516v-24.717a8.491 8.491 0 0 1 5.363-7.922l24.964-9.985a15.441 15.441 0 0 0 9.753-14.406v-3.238a39.31 39.31 0 0 0 16.549 3.641c5.906 0 11.51-1.31 16.548-3.641v3.238a15.441 15.441 0 0 0 9.753 14.406l24.963 9.985a8.493 8.493 0 0 1 5.364 7.922V356.2a.516.516 0 0 1-.516.516h-16.035a7.5 7.5 0 0 0 0 15h16.035c8.556 0 15.516-6.96 15.516-15.516v-24.717c0-9.678-5.806-18.254-14.792-21.85zm-32.271-49.625c0 13.544-11.02 24.564-24.565 24.564-13.545 0-24.564-11.02-24.564-24.564V235.96c0-8.97 11.25-16.548 24.565-16.548s24.564 7.578 24.564 16.548v24.048z"/><path d="M480.452 124.25H335.645v-.516c0-8.556-6.96-15.516-15.516-15.516h-24.564v-.516c0-21.816-17.749-39.564-39.564-39.564s-39.564 17.749-39.564 39.564v.516h-24.564c-8.556 0-15.516 6.96-15.516 15.516v24.048c0 8.556 6.96 15.516 15.516 15.516h128.258c8.556 0 15.516-6.96 15.516-15.516v-8.532h144.807c9.125 0 16.548 7.423 16.548 16.548v256.516c0 9.125-7.423 16.548-16.548 16.548H31.548c-9.125 0-16.548-7.423-16.548-16.548V155.797c0-9.125 7.423-16.548 16.548-16.548H151.79a7.5 7.5 0 0 0 0-15H31.548C14.152 124.25 0 138.401 0 155.797v256.516c0 17.396 14.152 31.548 31.548 31.548h448.903c17.396 0 31.548-14.152 31.548-31.548V155.797c.001-17.396-14.151-31.547-31.547-31.547zm-160.323 24.047H191.871a.516.516 0 0 1-.516-.516v-24.048c0-.285.231-.516.516-.516h32.064a7.5 7.5 0 0 0 7.5-7.5v-8.016c0-13.545 11.02-24.564 24.564-24.564s24.564 11.02 24.564 24.564v8.016a7.5 7.5 0 0 0 7.5 7.5h32.064c.285 0 .516.231.516.516v24.048h.002a.515.515 0 0 1-.516.516z"/><path d="M256.155 100.202c-4.141-.075-7.533 3.283-7.574 7.425l-.08 8.016a7.499 7.499 0 0 0 7.425 7.574h.076a7.5 7.5 0 0 0 7.498-7.425l.08-8.016a7.5 7.5 0 0 0-7.425-7.574zM440.371 212.427H264.016c-8.556 0-15.516 6.96-15.516 15.516v16.032c0 8.556 6.96 15.516 15.516 15.516h176.355c8.556 0 15.516-6.961 15.516-15.516v-16.032c0-8.555-6.96-15.516-15.516-15.516zm.516 31.549a.516.516 0 0 1-.516.516H264.016a.517.517 0 0 1-.516-.516v-16.032c0-.285.231-.516.516-.516h176.355c.285 0 .516.231.516.516v16.032zM408.307 276.557H264.016a7.5 7.5 0 0 0 0 15h144.291a7.5 7.5 0 0 0 0-15zM280.048 316.636h-16.032a7.5 7.5 0 0 0 0 15h16.032a7.5 7.5 0 0 0 0-15zM384.258 316.636h-72.146a7.5 7.5 0 0 0 0 15h72.146a7.5 7.5 0 0 0 0-15zM384.258 348.701h-72.146a7.5 7.5 0 0 0 0 15h72.146a7.5 7.5 0 0 0 0-15zM280.048 348.701h-16.032a7.5 7.5 0 0 0 0 15h16.032a7.5 7.5 0 0 0 0-15z"/></svg>
