<svg height="640" viewBox="0 0 480 480" width="640" xmlns="http://www.w3.org/2000/svg"><path d="M240 0C107.453 0 0 107.453 0 240s107.453 240 240 240 240-107.453 240-240C479.852 107.516 372.484.148 240 0zm0 464C116.29 464 16 363.71 16 240S116.29 16 240 16s224 100.29 224 224c-.14 123.652-100.348 223.86-224 224zm0 0"/><path d="M423.762 231.121v-.96c-.168-2.56-.336-5.13-.586-7.595-.246-2.46-.504-5-.801-7.351-.27-2.063-.543-4.125-.895-5.598-.343-2.402-.8-4.8-1.312-7.328l-.238-1.074c-.418-1.903-.86-3.856-1.313-5.598-1.234-5.058-2.816-10.402-4.8-16.113-.536-1.695-1.153-3.297-1.704-4.703-.8-2.176-1.648-4.344-2.57-6.403a164.307 164.307 0 0 0-3.621-8 108.002 108.002 0 0 0-3.531-6.894 165.816 165.816 0 0 0-9.711-16.258l-.16-.223v-.039c-.153-.222-.313-.433-.473-.664a143.371 143.371 0 0 0-3.344-4.726l-1.117-1.54c-1.547-2.144-3.203-4.214-5.418-6.847a13.465 13.465 0 0 1-1.016-1.285 245.169 245.169 0 0 0-4-4.602c-.48-.52-1-1.023-1.48-1.535l14.039-14.043-11.313-11.308-14.046 14.046c-.633-.601-1.207-1.19-1.856-1.785-1.426-1.254-2.848-2.52-4.625-4-.168-.12-.344-.246-.574-.43a15.84 15.84 0 0 1-.914-.8c-2.07-1.73-4.145-3.367-6.137-4.8l-.117-.09-1.602-1.16c-1.855-1.353-3.695-2.688-5.597-3.95a165.51 165.51 0 0 0-16.137-9.656c-2.328-1.29-4.656-2.504-6.848-3.52-2.715-1.352-5.425-2.535-8.113-3.68a100.675 100.675 0 0 0-6.574-2.632c-1.524-.586-3.051-1.168-4.45-1.602-5.945-2.055-11.288-3.64-16.19-4.8-2.067-.544-4.204-1.009-6.915-1.598-2.398-.504-4.8-.946-6.687-1.192-1.977-.433-3.953-.695-6.121-.976-2.399-.336-4.895-.586-7.438-.848-2.547-.266-5.066-.41-8.098-.578a168.358 168.358 0 0 0-18.199 0h-.902c-2.57.168-5.145.336-7.7.586-2.55.246-4.972.504-7.574.863-1.968.258-3.945.52-5.359.848-2.402.351-4.8.8-7.89 1.441-2.07.465-4.208.926-6.126 1.438-5.05 1.21-10.402 2.793-16.12 4.8-1.602.512-3.145 1.098-4.712 1.696-2.175.8-4.351 1.656-6.402 2.578-2.809 1.183-5.52 2.398-8 3.625a108.34 108.34 0 0 0-6.902 3.527c-.848.445-1.672.95-2.512 1.406-4.695 2.563-9.328 5.32-13.73 8.305h-.11l-.875.625a106.08 106.08 0 0 0-4.652 3.285l-1.555 1.137c-1.078.8-2.144 1.602-3.246 2.45-1.105.847-2.273 1.839-3.563 2.929-.16.156-.335.305-.52.437l-.8.618c-1.422 1.191-2.847 2.457-4.597 4a237.312 237.312 0 0 0-14.403 14.398 156.103 156.103 0 0 0-4.191 4.848c-.387.535-.813 1.039-1.27 1.511-1.722 2.075-3.36 4.145-4.8 6.13l-.075.09v.054l-1.133 1.55c-1.351 1.868-2.699 3.715-4 5.602a164.35 164.35 0 0 0-9.656 16.121c-1.289 2.328-2.496 4.656-3.52 6.864-1.355 2.71-2.538 5.406-3.69 8.113a103.2 103.2 0 0 0-2.528 6.316c-.621 1.602-1.238 3.203-1.703 4.707-2.04 5.918-3.625 11.254-4.801 16.2-.488 1.886-.926 3.84-1.344 5.742l-.254 1.136c-.52 2.403-.953 4.848-1.191 6.696-.457 2.074-.73 4.136-.992 6.136a152.698 152.698 0 0 0-.801 7.403 253.343 253.343 0 0 0-.594 8.133c-.176 3.09-.367 6.168-.367 9.273s.078 6.207.238 8.879v.96c.168 2.56.336 5.13.586 7.595.246 2.46.504 5 .801 7.351.27 2.063.543 4.125.895 5.598.343 2.402.8 4.8 1.312 7.328l.238 1.074c.418 1.902.86 3.856 1.313 5.598 1.234 5.058 2.816 10.402 4.8 16.113.536 1.695 1.153 3.297 1.704 4.703.8 2.176 1.648 4.344 2.57 6.403a164.307 164.307 0 0 0 3.621 8 108.597 108.597 0 0 0 3.54 6.91c.917 1.77 1.925 3.61 2.933 5.367l4 6.969 62.472-36-4.03-6.848c-20.009-34.652-20.009-77.348 0-112A112.732 112.732 0 0 1 184 142.992a113.89 113.89 0 0 1 112 0 111.492 111.492 0 0 1 17.16 12.535l-51.129 51.13c-17.18-11.372-40.176-7.884-53.21 8.07-13.036 15.953-11.868 39.187 2.699 53.753 14.566 14.567 37.8 15.735 53.753 2.7 15.954-13.035 19.442-36.032 8.07-53.211l51.13-51.13c31.418 35.923 36.46 87.868 12.535 129.161l-4 6.945 62.472 36 4-6.968a162.83 162.83 0 0 0 2.856-5.207c1.289-2.329 2.496-4.657 3.52-6.868 1.351-2.71 2.535-5.406 3.687-8.109a97.589 97.589 0 0 0 2.527-6.32c.625-1.602 1.243-3.2 1.707-4.703 2.04-5.922 3.621-11.258 4.797-16.204.489-1.886.93-3.84 1.348-5.742l.254-1.136c.52-2.399.953-4.848 1.191-6.696.457-2.07.73-4.137.992-6.137.329-2.398.586-4.918.801-7.398s.414-5.05.594-8.137c.176-3.09.246-6.215.246-9.32s-.078-6.207-.238-8.879zm-20.707-31.68c.441 1.711.8 3.48 1.218 5.207l.223 1.032c.442 2.054.8 4.113 1.207 6.746.352 1.597.555 3.199.8 4.91.313 2.215.536 4.512.802 6.832.129 1.23.222 2.48.312 3.68.078 1.023.145 2.007.207 2.87V232h-40.09a127.383 127.383 0 0 0-13.093-48.945l34.695-20c.719 1.36 1.441 2.68 2.152 4.21 1.2 2.4 2.254 4.798 3.344 7.4a96.587 96.587 0 0 1 2.273 5.679c.497 1.289 1 2.558 1.497 4.113 1.87 5.422 3.32 10.297 4.453 14.984zM255.87 72.801c2.29.23 4.586.457 7.082.8 1.55.208 3.086.399 5.2.84 2.054.286 4.12.664 6.71 1.215 1.88.414 3.809.848 5.817 1.36 4.543 1.105 9.41 2.543 15.09 4.504 1.27.39 2.476.87 4.078 1.488a89.36 89.36 0 0 1 5.601 2.238c2.48 1.05 4.895 2.098 7.512 3.41 1.328.617 2.664 1.352 4 2.047l-20 34.711A128.196 128.196 0 0 0 248 112.574V72.207h.8c2.4.168 4.75.32 7.071.594zm-75.328 10.054c1.21-.464 2.402-.945 3.906-1.406 5.461-1.89 10.328-3.328 15.008-4.465 1.871-.48 3.8-.914 6.207-1.441 2.063-.438 4.129-.8 6.742-1.207 1.555-.336 3.098-.527 4.93-.8 2.207-.306 4.504-.528 6.8-.759 2.298-.234 4.704-.386 6.583-.52H232v40.36c-17 .969-33.637 5.32-48.937 12.797l-20-34.703c1.363-.719 2.68-1.438 4.218-2.16 2.399-1.207 4.797-2.254 7.407-3.344 1.808-.848 3.632-1.582 5.855-2.39zM73.535 217.265c.207-1.6.41-3.202.863-5.417a93.011 93.011 0 0 1 1.09-6.106l.239-1.094c.386-1.726.8-3.496 1.25-5.328 1.101-4.566 2.55-9.441 4.496-15.074.422-1.351.925-2.621 1.496-4.101a99.789 99.789 0 0 1 2.23-5.602c1.059-2.48 2.114-4.887 3.418-7.512.613-1.328 1.352-2.672 2.047-4l34.695 20A127.496 127.496 0 0 0 112.266 232H72.199v-.8c.153-2.4.305-4.75.535-7.063.235-2.313.48-4.586.801-6.871zm17.13 99.688c-.72-1.36-1.442-2.68-2.153-4.21-1.2-2.4-2.254-4.798-3.344-7.4a96.586 96.586 0 0 1-2.273-5.679c-.497-1.289-1-2.559-1.497-4.113-1.87-5.43-3.32-10.305-4.453-14.992-.441-1.711-.8-3.48-1.218-5.207l-.223-1.032c-.441-2.054-.8-4.113-1.207-6.746-.352-1.597-.555-3.199-.8-4.91-.313-2.215-.536-4.512-.802-6.832a125.31 125.31 0 0 1-.312-3.68c-.078-1.023-.145-2.007-.207-2.87v-.802-.44h40.25a127.294 127.294 0 0 0 12.879 48.952zm42.718-147.746l-34.727-20c.68-1.055 1.313-2.129 2.024-3.2l.207-.28c1.433-2.086 2.875-4.168 4.57-6.399a96.584 96.584 0 0 1 3.703-4.8c.73-.75 1.406-1.551 2.024-2.4 1.144-1.374 2.402-2.753 3.511-4a223.5 223.5 0 0 1 13.473-13.464c1.312-1.152 2.617-2.312 3.566-3.121l1.329-1.031c.304-.246.593-.516.867-.801a94.92 94.92 0 0 1 5.543-4.328c2.222-1.68 4.449-3.2 6.617-4.711 1-.68 2.125-1.223 3.14-1.879l20 34.64a128.996 128.996 0 0 0-35.847 35.774zm177.41-35.824l20-34.727c1.023.656 2.07 1.274 3.078 1.961 2.207 1.52 4.426 3.047 6.793 4.848 1.84 1.312 3.602 2.71 4.871 3.742.418.402.856.8 1.274 1.129.414.328.8.633 1.078.84 1.304 1.097 2.61 2.258 4.043 3.511.351.329.687.672 1.047 1l-28.352 28.352a128.172 128.172 0 0 0-13.832-10.656zM264 240c0 13.254-10.746 24-24 24s-24-10.746-24-24 10.746-24 24-24c3.563.016 7.078.836 10.281 2.398l-6.191 6.196A15.59 15.59 0 0 0 240 224c-8.836 0-16 7.164-16 16s7.164 16 16 16 16-7.164 16-16a15.598 15.598 0 0 0-.602-4.09l6.196-6.191A23.632 23.632 0 0 1 264 240zm72-84.648L364.352 127c.296.328.617.64.914.96 1.222 1.376 2.445 2.75 3.336 3.802a18.973 18.973 0 0 0 1.765 2.148 99.67 99.67 0 0 1 4.32 5.54l.106.152c1.598 2.125 3.086 4.253 4.621 6.488.691 1.008 1.227 2.117 1.883 3.148l-34.64 20A127.436 127.436 0 0 0 336 155.352zm70.504 107.382c-.207 1.602-.406 3.204-.863 5.418a93.012 93.012 0 0 1-1.09 6.106l-.238 1.094c-.383 1.726-.801 3.496-1.25 5.328-1.102 4.566-2.551 9.441-4.497 15.074-.421 1.351-.925 2.621-1.496 4.101a99.789 99.789 0 0 1-2.23 5.602c-1.055 2.48-2.113 4.887-3.414 7.512-.617 1.336-1.356 2.664-2.051 4l-34.68-20A127.356 127.356 0 0 0 367.535 248h40.266v.8c-.153 2.4-.305 4.75-.535 7.063-.235 2.313-.48 4.586-.801 6.871zm0 0"/><path d="M152 376h176v-48H152zm16-32h144v16H168zm0 0"/></svg>
