<svg xmlns="http://www.w3.org/2000/svg" viewBox="0 0 512 512"><path d="M301.697 491.922H90.785c-11.025 0-21.029-9.649-21.029-20.669V39.39c0-11.02 10.005-19.311 21.029-19.311h210.912c5.544 0 10.039-4.49 10.039-10.039 0-5.55-4.496-10.04-10.039-10.04H90.785C68.692 0 49.677 17.292 49.677 39.39v431.863C49.677 493.35 68.692 512 90.785 512h210.912c5.544 0 10.039-4.49 10.039-10.039s-4.496-10.039-10.039-10.039z"/><path d="M459.745 243.586l-90.353-100.392c-3.711-4.127-10.059-4.451-14.176-.745-4.123 3.706-4.456 10.4-.745 14.517l75.272 83.976H201.304a10.036 10.036 0 0 0-10.039 10.039 10.036 10.036 0 0 0 10.039 10.039h226.745l-73.216 72.877c-3.922 3.922-3.922 10.103 0 14.025 1.961 1.961 4.529 2.858 7.098 2.858s5.137-1.022 7.098-2.983l90.353-90.375c3.775-3.775 3.937-9.866.363-13.836z"/></svg>
